<?xml version="1.0" encoding="utf-8"?>
<!-- Generator: Adobe Illustrator 24.0.1, SVG Export Plug-In . SVG Version: 6.00 Build 0)  -->
<svg version="1.1" id="圖層_1" xmlns="http://www.w3.org/2000/svg" xmlns:xlink="http://www.w3.org/1999/xlink" x="0px" y="0px"
	 viewBox="0 0 656 545" style="enable-background:new 0 0 656 545;" xml:space="preserve">
<style type="text/css">
	.st0{fill:#F2F2F2;}
	.st1{fill:#E6E6E6;}
	.st2{fill:#CACACA;}
	.st3{fill:#2F2E41;}
	.st4{fill:#3F3D56;}
	.st5{fill:#FFFFFF;}
	.st6{fill:#739A83;}
	.st7{fill:#FFB6B6;}
	.st8{fill:#A0616A;}
</style>
<path class="st0" d="M490.58,141.34c-0.61-0.38-1.23-0.74-1.84-1.11c-17.67-10.56-36.62-19.15-56.44-25.57l-4.6,59.26h-29.14V106
	c-1.83-0.35-3.68-0.69-5.53-1v68.91h-34.62c-39.69,0-71.87-30.07-71.87-67.17v0c-1.86,0.37-3.7,0.78-5.54,1.2v65.97h-28.2
	l-4.38-56.51c-20.37,7.3-39.71,16.9-57.58,28.59c-0.31,0.2-0.62,0.4-0.92,0.6c-1.55,1.02-3.09,2.06-4.61,3.11v226.07h83.11
	l-1.47-19.01l-8.08-104.4h162.75l-8.08,104.4l-1.47,19.01h82.19V143.62C493.05,142.85,491.82,142.08,490.58,141.34z M281.01,235.12
	h-23.46l-4.34-56.03h27.8V235.12z M393.04,235.12h-39.41v-1.11c0-2.24-1.94-4.06-4.34-4.06c0,0,0,0-0.01,0h-17.13
	c-2.4,0-4.34,1.82-4.34,4.06c0,0,0,0,0,0v1.11h-41.26v-56.03h106.49L393.04,235.12z M398.57,235.12v-56.03h28.73l-4.34,56.03H398.57
	z"/>
<path class="st0" d="M580.84,515.87l0.55-11.54c5.73-2.86,12.11-4.37,18.61-4.4c-8.94,6.83-7.82,19.99-13.88,29.18
	c-3.88,5.77-10.35,9.59-17.6,10.36l-7.48,4.28c-2.08-10.82,1.02-21.95,8.47-30.45c2.09-2.34,4.49-4.42,7.14-6.2
	C578.45,511.51,580.84,515.87,580.84,515.87z"/>
<path class="st0" d="M179.62,503.22l-18.05-5.11c-2.37-8.99-2.35-18.38,0.05-27.36c7.43,14.92,28.67,18.33,40.9,30.16
	c7.67,7.53,11.26,17.91,9.76,28.21l3.95,11.94c-17.89-1.21-34.32-9.68-44.96-23.18c-2.91-3.77-5.3-7.87-7.11-12.19
	C171.81,504.88,179.62,503.22,179.62,503.22z"/>
<path class="st1" d="M566.8,541.85c0,0.35-0.15,0.68-0.41,0.93c-0.26,0.24-0.62,0.38-0.99,0.38h-5.65c-0.77,0-1.4-0.58-1.41-1.3
	c0,0,0-0.01,0-0.01v-159.7c0-3.52-1.26-6.38-2.82-6.38H132.13c-1.56,0.01-2.82,2.86-2.82,6.38v158.72c0,0.68-0.55,1.24-1.27,1.31
	c-1.14,0.11-2.28,0.2-3.41,0.28c-0.03,0-0.06,0.01-0.08,0.01c-0.62,0.05-1.24,0.09-1.86,0.14h-0.01c-0.32-0.55-0.63-1.1-0.95-1.66
	c-0.1-0.19-0.15-0.4-0.15-0.61V373.87c0-0.97,0.04-1.95,0.11-2.92c0.1-1.33,0.28-2.65,0.53-3.95c1.19-6.1,3.87-10.23,6.92-10.25
	h429.37c0.45,0,0.89,0.09,1.29,0.26c0.6,0.25,1.14,0.6,1.6,1.04c0.62,0.6,1.14,1.27,1.57,2c1.5,2.48,2.58,6.17,2.96,10.46
	c0,0.04,0.01,0.08,0.01,0.12c0.1,1.06,0.15,2.15,0.14,3.23l0.1,14.08l0.06,8.39l0.19,26.34l0.07,9.35L566.8,541.85z"/>
<path class="st2" d="M604.17,544.8L410.39,545c-0.46,0-0.83-0.35-0.83-0.79c0-0.43,0.37-0.78,0.83-0.78l193.78-0.2
	c0.46,0,0.83,0.35,0.83,0.79C605,544.45,604.63,544.8,604.17,544.8z"/>
<path class="st3" d="M363.64,310.1h-34.32c-1.01,0-1.83,0.77-1.83,1.71v50.67h37.98v-50.67C365.47,310.87,364.65,310.1,363.64,310.1
	C363.64,310.1,363.64,310.1,363.64,310.1z M346.6,338.89c-2.23-0.01-4.04-1.7-4.05-3.79v-5.84c0-2.09,1.82-3.79,4.06-3.78
	c2.24,0,4.05,1.7,4.05,3.78v5.84C350.64,337.19,348.83,338.88,346.6,338.89L346.6,338.89z"/>
<path class="st4" d="M420.47,231.02H273.77c-2.62,0-4.75,1.99-4.75,4.44v92.53c0,2.45,2.13,4.44,4.75,4.44h146.71
	c2.62,0,4.75-1.99,4.75-4.44v-92.53C425.22,233.01,423.1,231.02,420.47,231.02z"/>
<path class="st5" d="M419.25,234.23H274.99c-1.41,0-2.54,1.07-2.54,2.38v90.24c0,1.31,1.14,2.37,2.54,2.38h144.26
	c1.4,0,2.54-1.07,2.54-2.38v-90.24C421.79,235.29,420.65,234.23,419.25,234.23z"/>
<path class="st4" d="M327.37,360.86v4.89c0,0.53,0.46,0.95,1.02,0.96h36.17c0.56,0,1.02-0.43,1.02-0.96v-4.89H327.37z"/>
<path class="st3" d="M391.15,368.41h-85.82c-0.87,0-1.58-0.66-1.58-1.48c0-0.1,0.01-0.2,0.03-0.3l1.33-5.91
	c0.16-0.68,0.8-1.17,1.54-1.17h83.16c0.75,0,1.39,0.49,1.54,1.17l1.33,5.91c0.18,0.8-0.37,1.58-1.22,1.75
	C391.37,368.4,391.26,368.41,391.15,368.41z"/>
<path class="st4" d="M307.61,360.61h1.96c0.19,0,0.34,0.14,0.34,0.32v0.84c0,0.18-0.15,0.32-0.34,0.32h-1.96
	c-0.19,0-0.34-0.14-0.34-0.32v-0.84C307.27,360.76,307.42,360.61,307.61,360.61z"/>
<path class="st4" d="M312.9,360.61h1.96c0.19,0,0.34,0.14,0.34,0.32v0.84c0,0.18-0.15,0.32-0.34,0.32h-1.96
	c-0.19,0-0.34-0.14-0.34-0.32v-0.84C312.55,360.76,312.71,360.61,312.9,360.61z"/>
<path class="st4" d="M318.18,360.61h1.96c0.19,0,0.34,0.14,0.34,0.32v0.84c0,0.18-0.15,0.32-0.34,0.32h-1.96
	c-0.19,0-0.34-0.14-0.34-0.32v-0.84C317.84,360.76,317.99,360.61,318.18,360.61z"/>
<path class="st4" d="M323.47,360.61h1.96c0.19,0,0.34,0.14,0.34,0.32v0.84c0,0.18-0.15,0.32-0.34,0.32h-1.96
	c-0.19,0-0.34-0.14-0.34-0.32v-0.84C323.13,360.76,323.28,360.61,323.47,360.61z"/>
<path class="st4" d="M328.76,360.61h1.96c0.19,0,0.34,0.14,0.34,0.32v0.84c0,0.18-0.15,0.32-0.34,0.32h-1.96
	c-0.19,0-0.34-0.14-0.34-0.32v-0.84C328.41,360.76,328.57,360.61,328.76,360.61z"/>
<path class="st4" d="M334.04,360.61H336c0.19,0,0.34,0.14,0.34,0.32v0.84c0,0.18-0.15,0.32-0.34,0.32h-1.96
	c-0.19,0-0.34-0.14-0.34-0.32v-0.84C333.7,360.76,333.85,360.61,334.04,360.61z"/>
<path class="st4" d="M339.33,360.61h1.96c0.19,0,0.34,0.14,0.34,0.32v0.84c0,0.18-0.15,0.32-0.34,0.32h-1.96
	c-0.19,0-0.34-0.14-0.34-0.32v-0.84C338.99,360.76,339.14,360.61,339.33,360.61z"/>
<path class="st4" d="M344.62,360.61h1.96c0.19,0,0.34,0.14,0.34,0.32v0.84c0,0.18-0.15,0.32-0.34,0.32h-1.96
	c-0.19,0-0.34-0.14-0.34-0.32v-0.84C344.27,360.76,344.43,360.61,344.62,360.61z"/>
<path class="st4" d="M349.9,360.61h1.96c0.19,0,0.34,0.14,0.34,0.32v0.84c0,0.18-0.15,0.32-0.34,0.32h-1.96
	c-0.19,0-0.34-0.14-0.34-0.32v-0.84C349.56,360.76,349.71,360.61,349.9,360.61z"/>
<path class="st4" d="M355.19,360.61h1.96c0.19,0,0.34,0.14,0.34,0.32v0.84c0,0.18-0.15,0.32-0.34,0.32h-1.96
	c-0.19,0-0.34-0.14-0.34-0.32v-0.84C354.85,360.76,355,360.61,355.19,360.61z"/>
<path class="st4" d="M360.47,360.61h1.96c0.19,0,0.34,0.14,0.34,0.32v0.84c0,0.18-0.15,0.32-0.34,0.32h-1.96
	c-0.19,0-0.34-0.14-0.34-0.32v-0.84C360.13,360.76,360.29,360.61,360.47,360.61z"/>
<path class="st4" d="M365.76,360.61h1.96c0.19,0,0.34,0.14,0.34,0.32v0.84c0,0.18-0.15,0.32-0.34,0.32h-1.96
	c-0.19,0-0.34-0.14-0.34-0.32v-0.84C365.42,360.76,365.57,360.61,365.76,360.61z"/>
<path class="st4" d="M371.05,360.61h1.96c0.19,0,0.34,0.14,0.34,0.32v0.84c0,0.18-0.15,0.32-0.34,0.32h-1.96
	c-0.19,0-0.34-0.14-0.34-0.32v-0.84C370.71,360.76,370.86,360.61,371.05,360.61z"/>
<path class="st4" d="M376.33,360.61h1.96c0.19,0,0.34,0.14,0.34,0.32v0.84c0,0.18-0.15,0.32-0.34,0.32h-1.96
	c-0.19,0-0.34-0.14-0.34-0.32v-0.84C375.99,360.76,376.15,360.61,376.33,360.61z"/>
<path class="st4" d="M381.62,360.61h1.96c0.19,0,0.34,0.14,0.34,0.32v0.84c0,0.18-0.15,0.32-0.34,0.32h-1.96
	c-0.19,0-0.34-0.14-0.34-0.32v-0.84C381.28,360.76,381.43,360.61,381.62,360.61z"/>
<path class="st4" d="M386.91,360.61h1.96c0.19,0,0.34,0.14,0.34,0.32v0.84c0,0.18-0.15,0.32-0.34,0.32h-1.96
	c-0.19,0-0.34-0.14-0.34-0.32v-0.84C386.56,360.76,386.72,360.61,386.91,360.61z"/>
<path class="st4" d="M307.55,363.08h1.96c0.19,0,0.34,0.14,0.34,0.32v0.84c0,0.18-0.15,0.32-0.34,0.32h-1.96
	c-0.19,0-0.34-0.14-0.34-0.32v-0.84C307.2,363.23,307.36,363.08,307.55,363.08z"/>
<path class="st4" d="M312.83,363.08h1.96c0.19,0,0.34,0.14,0.34,0.32v0.84c0,0.18-0.15,0.32-0.34,0.32h-1.96
	c-0.19,0-0.34-0.14-0.34-0.32v-0.84C312.49,363.23,312.64,363.08,312.83,363.08z"/>
<path class="st4" d="M318.12,363.08h1.96c0.19,0,0.34,0.14,0.34,0.32v0.84c0,0.18-0.15,0.32-0.34,0.32h-1.96
	c-0.19,0-0.34-0.14-0.34-0.32v-0.84C317.78,363.23,317.93,363.08,318.12,363.08z"/>
<path class="st4" d="M323.41,363.08h1.96c0.19,0,0.34,0.14,0.34,0.32v0.84c0,0.18-0.15,0.32-0.34,0.32h-1.96
	c-0.19,0-0.34-0.14-0.34-0.32v-0.84C323.06,363.23,323.22,363.08,323.41,363.08z"/>
<path class="st4" d="M328.69,363.08h1.96c0.19,0,0.34,0.14,0.34,0.32v0.84c0,0.18-0.15,0.32-0.34,0.32h-1.96
	c-0.19,0-0.34-0.14-0.34-0.32v-0.84C328.35,363.23,328.5,363.08,328.69,363.08z"/>
<path class="st4" d="M333.98,363.08h1.96c0.19,0,0.34,0.14,0.34,0.32v0.84c0,0.18-0.15,0.32-0.34,0.32h-1.96
	c-0.19,0-0.34-0.14-0.34-0.32v-0.84C333.64,363.23,333.79,363.08,333.98,363.08z"/>
<path class="st4" d="M339.27,363.08h1.96c0.19,0,0.34,0.14,0.34,0.32v0.84c0,0.18-0.15,0.32-0.34,0.32h-1.96
	c-0.19,0-0.34-0.14-0.34-0.32v-0.84C338.92,363.23,339.08,363.08,339.27,363.08z"/>
<path class="st4" d="M344.55,363.08h1.96c0.19,0,0.34,0.14,0.34,0.32v0.84c0,0.18-0.15,0.32-0.34,0.32h-1.96
	c-0.19,0-0.34-0.14-0.34-0.32v-0.84C344.21,363.23,344.36,363.08,344.55,363.08z"/>
<path class="st4" d="M349.84,363.08h1.96c0.19,0,0.34,0.14,0.34,0.32v0.84c0,0.18-0.15,0.32-0.34,0.32h-1.96
	c-0.19,0-0.34-0.14-0.34-0.32v-0.84C349.5,363.23,349.65,363.08,349.84,363.08z"/>
<path class="st4" d="M355.13,363.08h1.96c0.19,0,0.34,0.14,0.34,0.32v0.84c0,0.18-0.15,0.32-0.34,0.32h-1.96
	c-0.19,0-0.34-0.14-0.34-0.32v-0.84C354.78,363.23,354.94,363.08,355.13,363.08z"/>
<path class="st4" d="M360.41,363.08h1.96c0.19,0,0.34,0.14,0.34,0.32v0.84c0,0.18-0.15,0.32-0.34,0.32h-1.96
	c-0.19,0-0.34-0.14-0.34-0.32v-0.84C360.07,363.23,360.22,363.08,360.41,363.08z"/>
<path class="st4" d="M365.7,363.08h1.96c0.19,0,0.34,0.14,0.34,0.32v0.84c0,0.18-0.15,0.32-0.34,0.32h-1.96
	c-0.19,0-0.34-0.14-0.34-0.32v-0.84C365.36,363.23,365.51,363.08,365.7,363.08z"/>
<path class="st4" d="M370.99,363.08h1.96c0.19,0,0.34,0.14,0.34,0.32v0.84c0,0.18-0.15,0.32-0.34,0.32h-1.96
	c-0.19,0-0.34-0.14-0.34-0.32v-0.84C370.64,363.23,370.8,363.08,370.99,363.08z"/>
<path class="st4" d="M376.27,363.08h1.96c0.19,0,0.34,0.14,0.34,0.32v0.84c0,0.18-0.15,0.32-0.34,0.32h-1.96
	c-0.19,0-0.34-0.14-0.34-0.32v-0.84C375.93,363.23,376.08,363.08,376.27,363.08z"/>
<path class="st4" d="M381.56,363.08h1.96c0.19,0,0.34,0.14,0.34,0.32v0.84c0,0.18-0.15,0.32-0.34,0.32h-1.96
	c-0.19,0-0.34-0.14-0.34-0.32v-0.84C381.22,363.23,381.37,363.08,381.56,363.08z"/>
<path class="st4" d="M386.85,363.08h1.96c0.19,0,0.34,0.14,0.34,0.32v0.84c0,0.18-0.15,0.32-0.34,0.32h-1.96
	c-0.19,0-0.34-0.14-0.34-0.32v-0.84C386.5,363.23,386.66,363.08,386.85,363.08z"/>
<path class="st4" d="M332.92,366.05h20.46c0.19,0,0.34,0.14,0.34,0.32v0.84c0,0.18-0.15,0.32-0.34,0.32h-20.46
	c-0.19,0-0.34-0.14-0.34-0.32v-0.84C332.58,366.19,332.73,366.05,332.92,366.05z"/>
<path class="st2" d="M412,246.66H277.02c-0.3-0.01-0.53-0.23-0.53-0.51c0.01-0.27,0.24-0.49,0.53-0.49H412
	c0.3,0.01,0.53,0.23,0.53,0.51C412.52,246.44,412.28,246.65,412,246.66z"/>
<ellipse class="st4" cx="286.21" cy="240.09" rx="3.15" ry="3.01"/>
<ellipse class="st4" cx="297.07" cy="240.09" rx="3.15" ry="3.01"/>
<ellipse class="st4" cx="307.94" cy="240.09" rx="3.15" ry="3.01"/>
<path class="st4" d="M405.45,237.83h-7.72c-0.32,0.01-0.58,0.26-0.57,0.56c0.01,0.29,0.26,0.53,0.57,0.54h7.72
	c0.32-0.01,0.58-0.26,0.57-0.56C406.02,238.07,405.77,237.83,405.45,237.83z"/>
<path class="st4" d="M405.45,239.88h-7.72c-0.32,0.01-0.58,0.26-0.57,0.56c0.01,0.29,0.26,0.53,0.57,0.54h7.72
	c0.32-0.01,0.58-0.26,0.57-0.56C406.02,240.12,405.77,239.88,405.45,239.88z"/>
<path class="st4" d="M405.45,241.93h-7.72c-0.32,0.01-0.58,0.26-0.57,0.56c0.01,0.29,0.26,0.53,0.57,0.54h7.72
	c0.32-0.01,0.58-0.26,0.57-0.56C406.02,242.17,405.77,241.93,405.45,241.93z"/>
<path class="st6" d="M338.42,275.97h16.87c1.27,0,2.29,0.96,2.29,2.14l0,0c0,1.18-1.03,2.14-2.29,2.14h-16.87
	c-1.27,0-2.29-0.96-2.29-2.14l0,0C336.13,276.93,337.16,275.97,338.42,275.97z"/>
<path class="st1" d="M327.53,284.54h38.66c1.27,0,2.29,0.96,2.29,2.14v0c0,1.18-1.03,2.14-2.29,2.14h-38.66
	c-1.27,0-2.29-0.96-2.29-2.14v0C325.23,285.5,326.26,284.54,327.53,284.54z"/>
<path class="st1" d="M327.53,293.12h38.66c1.27,0,2.29,0.96,2.29,2.14l0,0c0,1.18-1.03,2.14-2.29,2.14h-38.66
	c-1.27,0-2.29-0.96-2.29-2.14l0,0C325.23,294.08,326.26,293.12,327.53,293.12z"/>
<path class="st4" d="M278.33,374.86h-42.16c-3.1,0-5.62,2.35-5.62,5.25c0,2.9,2.52,5.25,5.62,5.25h15.46v40.72h11.24v-40.72h15.46
	c3.1,0,5.62-2.35,5.62-5.25C283.96,377.21,281.44,374.86,278.33,374.86z"/>
<path class="st4" d="M306.16,448.64H193.39c-22.6-0.08-41.72-15.63-44.92-36.54l-3.99-13.72c-8.26-28.44-20.85-55.63-37.37-80.72
	c-7.55-11.46-11.44-22.56-2.61-33.24c0.08-0.09,0.15-0.18,0.22-0.27c7.08-8.61,42.33-10.48,53.82-10.84
	c0.45-0.01,0.91-0.02,1.37-0.02h70.15c0.46,0,0.91,0.01,1.37,0.02c12.62,0.34,24.02,7.13,29.68,17.68
	c6.04,10.77,5.27,23.77-2.01,33.85c-24.64,34.6-32.18,56.29-24.46,70.34c7.47,13.59,30.37,20.54,72.07,21.86
	c11.21,0.36,16.35,8.51,16.38,15.94c0.04,7.23-4.91,15.22-15.85,15.66C306.88,448.64,306.52,448.64,306.16,448.64z"/>
<path class="st4" d="M212.55,542.24h42.16c3.1,0,5.62-2.35,5.62-5.25c0-2.9-2.52-5.25-5.62-5.25h-15.46v-88.67h-11.24v88.67h-15.46
	c-3.1,0-5.62,2.35-5.62,5.25C206.92,539.89,209.44,542.24,212.55,542.24z"/>
<path class="st3" d="M209.18,276.57l0.88,5.02c0.42,2.43,1.93,19.63,0.81,21.68c-0.1-3.83-7.73-9.85-12.67-8.48l-7.76,1.61l-4.82,1
	l-3.92,0.8l-11.39,2.33c-0.02-0.12-0.03-0.25-0.05-0.38c-0.03-0.16-0.05-0.31-0.09-0.47c-0.21-1-0.6-1.96-1.14-2.84
	c-0.06,1.18-0.43,2.33-1.08,3.34c-0.02,0.03-0.03,0.05-0.05,0.08c-0.2,0.31-0.43,0.6-0.67,0.88c-0.01,0.01-0.02,0.02-0.03,0.03
	c0,0-2.34-34.87-2.1-35.19c0.18-0.23,0.36-0.45,0.55-0.67c0.19-0.22,0.37-0.44,0.57-0.66c0.03-0.02,0.05-0.05,0.06-0.07
	c0.55-0.61,1.13-1.19,1.74-1.74c0.18-0.16,0.37-0.32,0.55-0.49c2.85-2.46,6.25-4.3,9.96-5.37c0.42-0.12,0.85-0.23,1.3-0.34
	c0.44-0.1,0.88-0.2,1.33-0.29l0.15-0.03c0.21-0.04,0.44-0.08,0.65-0.11c0.27-0.04,0.54-0.08,0.81-0.11
	c3.45-0.46,6.97-0.28,10.34,0.54c0.01,0,0.01,0.01,0.02,0c2.82,0.69,5.49,1.8,7.92,3.3c4.2,2.59,5.84,6.83,7,11.58
	C208.46,273.16,208.8,274.85,209.18,276.57z"/>
<polygon class="st7" points="250.71,506.49 257.97,510.18 277.2,485.33 266.48,479.89 "/>
<path class="st3" d="M254.2,497.64l13.19,3.86l-2.1,5.16l9.04,12.27c1.16,1.57,0.73,3.72-0.94,4.8c-1,0.64-2.27,0.79-3.41,0.38
	l-15.35-5.45l-0.57-6.05l-3.11,4.74l-5.79-2.06L254.2,497.64z"/>
<path class="st7" d="M291.85,395.35c-4.38,1-8.79-1.51-9.86-5.61c-0.11-0.44-0.19-0.88-0.22-1.33l-61.95-20.83l11.37-9.25
	l58.8,21.88c4.53,0.02,8.19,3.46,8.17,7.7C298.15,391.46,295.54,394.54,291.85,395.35L291.85,395.35z"/>
<path class="st6" d="M202.51,315.98c0,0-10.43,0.21-11.36,11.35c-0.93,11.13,21.84,38.67,25.37,43.22s42.71,10.13,42.71,10.13
	l13.32-9.04c-14-8.48-26.77-14.98-35.34-14.68L202.51,315.98z"/>
<path class="st7" d="M189.71,365.1l2.54,10.21c0,0,0.02,9.42,1.81,11.15c1.77,1.73,40.73-1.74,40.73-1.74s-4.13-15.17-4.08-26.65
	L189.71,365.1z"/>
<path class="st3" d="M272.01,495.71l-14.05-7.22c-0.27-17.09,10.73-40.23,23.78-64.45c-29.18,4.69-56.71,6.19-80.52,0.52
	c-8.13-2.01-13.04-9.75-11.01-17.38c0.09-0.36,0.2-0.72,0.32-1.07c2.85-8.13-3.54-13.22,2.34-22.16
	c15.46-4.93,30.14-6.33,43.57-1.97l8.41,17.39l41.7-5.04c8.43-0.94,16.09,4.68,17.09,12.56c0,0.04,0.01,0.07,0.01,0.11
	c0.06,0.42,0.09,0.85,0.11,1.27C295.34,445.21,285.88,478.46,272.01,495.71z"/>
<ellipse class="st7" cx="188.15" cy="278.58" rx="17.43" ry="16.29"/>
<path class="st6" d="M184.05,300.46l16.07-0.89c1.39-0.08,2.68,0.68,3.21,1.88l4.54,10.29l18.87,14.58c0,0,7.47,8.89,7.49,20.36
	c0.02,11.48,2.65,38.04,2.65,38.04s-10.9-14.34-17.63-10.53c-1.14,0.65-1.55,1.98-2.75,2.65c-0.6,0.33-1.98,0.01-2.58,0.34
	c-9.27,5.15-18.94,10.17-19.85,9.29c-1.77-1.73-3.93-10.57-3.93-10.57l-14.71-50.5c-1.61-5.38-0.57-11.15,2.85-15.74
	c1.03-1.35,2.1-2.36,3.1-2.52C183.63,306.68,182.43,301.98,184.05,300.46z"/>
<polygon class="st7" points="320.71,527.88 327.5,523.48 312.13,496.39 302.12,502.89 "/>
<path class="st3" d="M321.74,509.71l-10.63,8.88c-16.9-17.6-29.67-42.28-40.5-70.31c-28.37-7.77-49.76-20.29-68.43-35.16
	c-6.34-5.01-11.08-11.45-5.68-17.55c0.25-0.29,0.52-0.56,0.79-0.83c6.38-6.13,22.56-4.96,32.03-10.57l21.17,21.15l-1.33,5.67
	l39.76,12.59c8,2.62,12.22,10.81,9.41,18.29c-0.01,0.04-0.03,0.07-0.04,0.11c-0.15,0.4-0.32,0.8-0.5,1.19L321.74,509.71z"/>
<path class="st3" d="M316.76,526.1l10.86-7.99l3.37,4.54l15.94-0.05c2.04-0.01,3.7,1.53,3.7,3.44c0,1.13-0.59,2.2-1.58,2.84
	l-13.48,8.76l-5.66-2.98l2.43,5.08l-5.08,3.3L316.76,526.1z"/>
<path class="st7" d="M207.78,427.73c-4.15-1.65-6.09-6.12-4.32-10c0.19-0.41,0.41-0.81,0.68-1.19l-36.37-51.3l15.03-1.07
	l33.17,50.38c3.62,2.54,4.36,7.35,1.63,10.74C215.32,428.13,211.26,429.13,207.78,427.73L207.78,427.73z"/>
<path class="st6" d="M186.87,314.19c0,0-8.51-5.65-16.37,2.76c-7.86,8.41-7.2,43.21-7.28,48.82c-0.02,1.76,2.69,5.55,6.43,9.93
	c1.68,1.97,3.57,4.05,5.5,6.12c1.12,1.2,0.16,3.7,1.28,4.86c1.12,1.16,4.33,0.99,5.4,2.06c5.06,5.11,9.16,8.99,9.16,8.99l16.46,0.19
	c0.19-11.44-8.19-21.64-18.96-31.51L186.87,314.19z"/>
<path class="st3" d="M209.94,270.67c-0.64,0.3-1.27,0.58-1.89,0.86c-2.47,1.13-5.02,2.1-7.63,2.9c-0.43-1.11-1.1-2.12-1.95-2.99
	c0.22,1.2,0.11,2.42-0.32,3.57c-3.95,0.92-8.11,0.77-11.97-0.43c2.53,4.38,4.4,13.6,4.26,21.83c-0.06,4.35-0.69,8.42-2.06,11.34
	l-1.77-5.03c-0.16-1.8-0.49-3.57-0.98-5.32c-1.19-4.89-2.29-1.62-3.92,0.8l-11.39,2.33c-0.02-0.12-0.03-0.25-0.05-0.38
	c-0.03-0.16-0.05-0.31-0.09-0.47c-0.21-1-0.6-1.96-1.14-2.84c-0.06,1.18-0.43,2.33-1.08,3.34c-0.02,0.03-0.03,0.05-0.05,0.08
	c-0.2,0.31-0.43,0.6-0.67,0.88c-0.01,0.01-0.02,0.02-0.03,0.03c-7.35,0.92-12.51-34.53-2.09-35.19c0.3-0.02,0.36-0.45,0.55-0.67
	s0.37-0.44,0.57-0.66c0.03-0.02,0.05-0.05,0.06-0.07c0.56-0.6,1.13-1.18,1.74-1.74c0.18-0.16,0.37-0.32,0.55-0.49
	c2.86-2.45,6.26-4.28,9.97-5.37c0.42-0.12,0.85-0.24,1.29-0.35c0.44-0.1,0.88-0.2,1.33-0.29l0.15-0.03
	c0.21-0.04,0.44-0.08,0.65-0.11c0.27-0.04,0.54-0.08,0.81-0.11c1,0.47,1.85,1.17,2.48,2.03l7.28-1.39c0.19-0.04,0.39-0.07,0.58-0.09
	l0.01,0C202.21,255.22,208.05,262.05,209.94,270.67z"/>
<path class="st3" d="M170.28,264.4c-1.56,1.05-3.2,2.13-5.1,2.39c-1.9,0.26-4.13-0.6-4.65-2.33c-0.64-2.11,1.4-4.04,3.23-5.41
	l5.82-4.35c1.07-0.88,2.27-1.61,3.57-2.15c1.32-0.54,2.83-0.5,4.11,0.13c1.27,0.8,2.01,2.16,1.94,3.6
	c-0.08,1.41-0.58,2.77-1.44,3.94c-2.18,3.18-5.66,5.39-9.62,6.11"/>
<path class="st4" d="M214.39,377.49h-42.16c-3.1,0-5.62,2.35-5.62,5.25c0,2.9,2.52,5.25,5.62,5.25h15.46v40.72h11.24V388h15.46
	c3.1,0,5.62-2.35,5.62-5.25C220.01,379.84,217.49,377.49,214.39,377.49z"/>
<path class="st2" d="M370.16,544.14l-308.32,0.2c-0.46,0-0.83-0.35-0.83-0.79c0-0.43,0.37-0.78,0.83-0.78l308.32-0.2
	c0.46,0,0.83,0.35,0.83,0.79C370.99,543.79,370.62,544.14,370.16,544.14z"/>
<polygon class="st8" points="459.88,456.91 466.75,463.9 498.86,442.48 488.73,432.16 "/>
<path class="st3" d="M474.09,466.8L474.09,466.8l-0.7-6.99l-0.32-0.14l-1.85-0.82l-8.72-3.86l-0.18-0.18l-1.75-1.79l-9.69,8.32
	l13.13,13.37l9,9.17l0.3-0.26c5.18-4.44,5.53-11.96,0.79-16.81C474.1,466.81,474.09,466.81,474.09,466.8L474.09,466.8z"/>
<polygon class="st8" points="424.32,526.65 434.04,529.41 450.04,495.7 435.7,491.63 "/>
<path class="st3" d="M449.47,534.2c-1.58-2.79-4.3-4.87-7.53-5.78l-4.41-5.68l-0.34,0.03l-11.64,1l-0.26-0.07l-2.47-0.7l-3.82,11.76
	l31.32,8.89l0.12-0.37C451.41,540.25,451.07,536.98,449.47,534.2z"/>
<path id="b2eb929e-713e-4b71-a146-193a455bcc79-132" class="st3" d="M504.42,350.17c0,0,62.02,55.97,22.81,73.29h-12.12
	c0,0-3.64-12.09-11.98-22.29c-1.14-1.4-5.43-1.12-6.63-2.48c-7.27-8.33-15.16-15.49-20.6-15.21l1.3,38.67l2.11,13.79
	c1.11,7.13-30.13,69.39-30.13,69.39l-19.64-7.21c0,0,20.46-51.28,20.7-58.67l-16.4-81.28L504.42,350.17z"/>
<path class="st6" d="M509.59,352.93c-0.32,0.42-0.73,0.77-1.21,1.02c-0.79,0.42-1.65,0.71-2.54,0.88
	c-13.96,2.96-59.58,9.1-71.42,6.17c-1.45-0.35-2.4-0.85-2.71-1.51c-0.99-2.08-0.86-10.84-0.28-21.43c0.11-1.98,2.45-4.13,2.59-6.21
	c0.1-1.56-2-3.02-1.89-4.6c0.77-10.71,1.77-21.62,2.44-28.51c0.42-4.43,0.71-7.21,0.71-7.21l-7.2-42.45l0.34-0.52l0.38-0.18
	l23.23-10.75l1.26-3.02c0.75-1.78,2.58-2.95,4.63-2.96l15.3-0.06c1.61-0.01,3.13,0.71,4.07,1.93l4.15,5.37l27.41,16.42l-0.11,0.3
	l-12.86,36.58l-0.06,2.85v0.01l-0.48,22.92l1.33,3.11l-1.5,5.1c0,0,0.69,5.96,4.38,10.38c3.35,4.02,7.6,8.21,9.53,11.61v0.01
	C510.13,350.06,510.49,351.69,509.59,352.93z"/>
<path id="e9cec503-1de8-4692-84d1-4d2e854ea0bd-133" class="st3" d="M530.21,420.13l-3.31,3.91c0,0-30.49,19.94-31.53,21.8
	l-4.82,4.26l-11.66-11.65l6.06-7.1c4.85-5.68,11.12-10.17,18.26-13.06l0,0l9.29-7.7L530.21,420.13z"/>
<path class="st8" d="M510.84,364.18l-5.55-50.23l-1.47-20.67l15.54-2.63c0,0-0.62,14.78,1.42,23.12c2.01,8.23,0.27,49.3,0.14,50.4
	c3.11,2.6,3.38,7.07,0.6,9.98c-2.78,2.91-7.56,3.16-10.68,0.56c-3.11-2.6-3.38-7.07-0.6-9.98
	C510.43,364.54,510.63,364.35,510.84,364.18L510.84,364.18z"/>
<path class="st6" d="M525.99,324.36l-19.97,3.86l-1.75-6.51l-2.04-2.02l-4.07-19.92l-5.84-11.67l1.52-39.9l14.82,7.35l0.02,0.01
	c2.27,2.3,3.83,5.59,6.43,8.9c8.19,10.41,9.09,35.7,8.85,49.56c0,0.23,0.24,0.47,0.53,0.72C527.38,317.22,528,321.23,525.99,324.36
	L525.99,324.36z"/>
<path class="st8" d="M420.39,366.15l5.55-50.23l1.47-20.67l-15.54-2.63c0,0,0.62,14.78-1.42,23.12c-2.01,8.23-0.27,49.3-0.14,50.4
	c-3.11,2.6-3.38,7.07-0.6,9.98s7.56,3.16,10.68,0.56c3.11-2.6,3.38-7.07,0.6-9.98C420.8,366.51,420.6,366.32,420.39,366.15
	L420.39,366.15z"/>
<path class="st6" d="M438.9,290.08l-4.33,8.66l-1.51,3.01l-4.07,19.91l-2.03,2.02l-1.75,6.51l-0.82-0.16l-14.83-2.87l-4.32-0.83
	c-2.01-3.13-1.39-7.14,1.49-9.61c0.3-0.25,0.54-0.49,0.53-0.72c-0.25-13.85,0.66-39.15,8.85-49.56c2.6-3.3,4.16-6.59,6.43-8.89
	c0.01-0.01,0.01-0.01,0.01-0.01l5.52-8.45l0.34-0.52l0.38-0.18L438.9,290.08z"/>
<ellipse id="e944ea38-edcc-43c9-bf24-dbaf21228ba4" class="st8" cx="465.12" cy="208.51" rx="20.36" ry="19.03"/>
<path class="st3" d="M488,200.16c-0.07-3.24-0.46-7.4-2.9-10.71c-2.05-2.78-6.19-4.99-10.05-3.89c0.09-1.47-0.72-2.86-2.08-3.6
	c-1.46-0.83-3.22-0.99-4.77-1.12c-3.91-0.34-7.97-0.7-11.93,0.01c-4.45,0.79-8.09,2.93-9.98,5.88l-0.04,0.09l-0.39,1.75
	c-0.1,0.47-0.43,0.88-0.88,1.12c-0.45,0.24-1,0.27-1.48,0.1c-0.83-0.29-1.76,0.1-2.07,0.88c-0.1,0.24-0.13,0.5-0.09,0.75l0.11,0.7
	l-1.12-0.2c-0.87-0.16-1.71,0.37-1.88,1.19c-0.06,0.27-0.03,0.56,0.07,0.82l0.31,0.79c-0.47,0.01-0.91,0.19-1.23,0.51
	c-0.46,0.47-0.55,1.17-0.21,1.72c1.25,2,3.03,3.67,5.16,4.85c0.96,0.54,1.99,0.95,3.07,1.23c0.22,0.06,0.46,0.11,0.7,0.16
	c8.63,1.74,17.52,1.99,26.25,0.74c-0.51,1.61-0.71,3.29-0.58,4.97c0.28,2.1,1.6,3.82,3.35,4.4c0.4,0.13,0.81,0.22,1.22,0.28
	c0.4,0.06,0.79,0.15,1.17,0.27c1.77,0.61,2.68,2.44,2.03,4.1c-0.21,0.53-0.57,1.01-1.04,1.37c0,0,1.84,1.43,2.07,1.35
	c0.91-0.37,1.66-1,2.16-1.8C486.48,214.12,488.17,207.84,488,200.16z"/>
</svg>
